<?xml version="1.0" encoding="utf-8"?>
<!-- Generator: Adobe Illustrator 16.0.0, SVG Export Plug-In . SVG Version: 6.00 Build 0)  -->
<!DOCTYPE svg PUBLIC "-//W3C//DTD SVG 1.1//EN" "http://www.w3.org/Graphics/SVG/1.1/DTD/svg11.dtd">
<svg version="1.1" id="Layer_1" xmlns="http://www.w3.org/2000/svg" xmlns:xlink="http://www.w3.org/1999/xlink" x="0px" y="0px"
	 width="126.315px" height="183.459px" viewBox="0 0 126.315 183.459" enable-background="new 0 0 126.315 183.459"
	 xml:space="preserve">
<g>
	<path fill="#1D1D1D" d="M39.535,128.377c4.225,1.307,8.58,2.65,15.777,3.279c-6.206-0.635-10.453-1.971-14.118-3.473
		c3.487,1.023,7.407,1.973,13.118,2.473c-8.203-0.838-12.988-2.904-17.522-4.953c-0.344-1.822-0.64-3.668-0.892-5.469
		c0.17,1.773,0.374,3.564,0.597,5.334c-0.055-0.023-0.11-0.049-0.165-0.074l-0.432-0.195l-0.049-0.258
		c-0.371-1.93-0.684-3.895-0.951-5.807c0.232,2.43,0.512,4.922,0.846,7.297c0.304,0.088,0.605,0.186,0.908,0.275
		c0.032,0.24,0.059,0.488,0.092,0.725C37.678,127.801,38.6,128.086,39.535,128.377z"/>
	<path fill="#1D1D1D" d="M118.582,92.229l-54.924-84l-0.173,0.265l-0.827-1.265l-54.925,84l54.925,84l0.173-0.264l0.827,1.264
		L118.582,92.229z M33.844,104.545l0.477-0.016c0.226,0.465,0.534,1.07,0.949,1.809c0.996,1.77,1.664,2.486,1.928,3.023
		c0.65,1.332,1.543,3.154,3.828,7.416c0.775,1.344,1.759,2.523,2.879,3.561c4.147,4.584,10.962,6.672,17.188,6.467
		c-0.733,0.064-1.461,0.105-2.176,0.105c-6.433,0-12.047-2.48-15.727-5.889c-0.812-0.879-1.501-1.803-2.049-2.75
		c-1.072-2-1.836-3.461-2.416-4.592c0.252,0.785,0.547,1.658,0.895,2.615c-0.8-1.502-1.415-2.682-1.895-3.615
		c0.525,1.639,1.227,3.629,2.236,6.061c0.614,0.771,1.3,1.475,2.017,2.145c3.58,3.857,8.616,6.27,14.698,6.98
		c3.104,0.334,6.296,0.199,9.251-0.451c7.731-1.518,11.374-5.82,13.021-10.148c-1.34,5.516-5.489,8.906-10.646,10.555
		c-0.762,0.225-1.547,0.424-2.37,0.584c0.36-0.062,0.706-0.137,1.055-0.207c-1.46,0.373-2.98,0.623-4.529,0.748
		c5.794-0.281,9.815-1.859,12.616-4.035c2.97-2.049,5.138-4.885,6.523-8.529c-0.003,0.035-0.006,0.074-0.009,0.109l-0.021-0.002
		c-0.94,3.734-2.84,6.727-5.586,8.939c-2.096,1.514-4.574,2.652-7.439,3.402c1.854-0.455,3.553-1.064,5.114-1.824
		c-1.942,1.098-4.187,1.904-6.724,2.398c5.424-0.924,9.546-3.072,12.43-6.461c1.915-1.936,3.49-4.297,4.769-7.098
		c-0.033,0.201-0.062,0.396-0.099,0.605l-0.043-0.008c-1.022,3.217-2.609,5.895-4.74,8.045c-1.529,1.391-3.248,2.547-5.176,3.477
		c1.146-0.518,2.215-1.127,3.242-1.787c-2.165,1.639-4.753,2.861-7.773,3.652c4.763-1.17,8.525-3.328,11.45-6.555
		c2.227-2.137,4.118-4.744,5.718-7.855c-0.079,0.344-0.159,0.678-0.24,0.99l-0.033-0.008c-1.252,2.967-2.797,5.482-4.675,7.566
		c-0.045,0.043-0.087,0.092-0.132,0.135c-0.058,0.062-0.121,0.117-0.179,0.18c-5.577,5.219-13.163,7.631-23.483,7.631
		c-9.641-0.447-15.002-2.107-19.732-3.57c-0.841-0.26-1.669-0.51-2.505-0.756C34.28,117.205,33.85,104.672,33.844,104.545z
		 M68.981,126.197c-0.206,0.086-0.409,0.174-0.622,0.254c-0.107,0.039-0.219,0.074-0.327,0.113
		c-0.638,0.227-1.302,0.432-1.999,0.602c-2.094,0.51-4.145,0.744-6.117,0.744c-4.403,0-8.42-1.166-11.699-2.992
		c2.261,0.965,4.751,1.631,7.459,1.947c4.19,0.451,8.549,0.061,12.256-1.328c0.406-0.148,0.793-0.312,1.17-0.482
		c0.129-0.059,0.255-0.121,0.383-0.182c0.271-0.131,0.535-0.27,0.791-0.412c2.908-1.588,5.192-3.947,6.327-7.195
		c-0.492,3.773-3.042,6.865-7.121,8.719C69.316,126.059,69.148,126.129,68.981,126.197z M35.909,73.072
		c0.092,5.387,2.769,9.749,6.584,13.377c4.785,5.002,11.797,8.668,17.593,11.696c1.006,0.525,1.977,1.033,2.9,1.529
		c3.926,1.814,6.736,3.615,8.762,5.49c2.805,3.049,3.711,6.332,3.932,10.223h0.016c-0.002,0.031-0.008,0.061-0.008,0.09
		c0.002,0.033,0.004,0.066,0.006,0.1h-0.016c-0.009,0.135-0.03,0.268-0.044,0.4c-0.282-3.91-1.323-7.092-4.559-10.08
		c-1.972-2.166-4.975-4.205-9.54-6.316c-0.947-0.508-1.918-1.014-2.918-1.537c-5.51-2.879-12.093-6.32-16.927-10.946
		C38.069,83.298,35.681,78.724,35.909,73.072z M77.59,110.488c-0.692-2.729-2.061-5.014-4.307-7.082
		c-1.772-1.926-4.225-3.648-7.521-5.33c-1.832-1.123-3.797-2.158-5.877-3.254c-1.711-0.9-3.482-1.834-5.184-2.824
		c-3.399-1.982-7.63-4.452-11.047-7.709c-3.184-3.363-5.418-7.521-5.127-12.763c0.002-0.036,0.007-0.07,0.01-0.106
		c-0.016,4.877,2.203,8.691,5.627,11.962c3.106,3.312,7.45,6.062,12.049,8.742c1.682,0.98,3.441,1.906,5.145,2.803
		c2.096,1.104,4.074,2.146,5.898,3.268c2.777,1.414,5,2.898,6.742,4.518c1.789,1.938,2.95,4.074,3.57,6.514
		c0.574,2.031,0.609,4.439,0.574,6.307h-0.011C78.13,113.918,78.039,112.078,77.59,110.488z M80.773,112.617
		c-0.004-0.93-0.053-1.832-0.207-2.635c-0.577-3.607-2.135-6.531-4.893-9.066c-1.465-1.578-3.34-3.006-5.689-4.342
		c-2.188-1.512-4.686-2.803-7.1-4.053c-1.348-0.697-2.742-1.418-4.053-2.164c-0.602-0.34-1.217-0.685-1.842-1.033
		c-3.812-2.131-8.088-4.522-11.384-7.621c-2.779-2.941-4.637-6.498-4.495-11.007c0.005-0.151,0.021-0.298,0.028-0.448
		c0.023,4.467,2.121,7.918,5.181,10.771c3.231,3.418,7.854,6.01,12.166,8.42c0.625,0.351,1.242,0.695,1.846,1.038
		c1.295,0.735,2.68,1.45,4.018,2.143c2.443,1.264,4.971,2.572,7.172,4.096c1.918,1.09,3.538,2.244,4.889,3.488
		c2.278,2.443,3.617,5.24,4.156,8.604C80.785,109.961,80.816,111.283,80.773,112.617z M83.606,110.59
		c-0.005-0.383-0.02-0.758-0.058-1.107c-0.408-4.545-2.04-8.041-5.171-10.963c-1.141-1.244-2.525-2.387-4.175-3.453
		c-2.395-1.832-5.152-3.225-7.818-4.569c-1.195-0.604-2.326-1.172-3.422-1.778c-1.168-0.644-2.426-1.286-3.719-1.949
		c-3.908-1.999-8.31-4.266-11.595-7.336c-2.386-2.56-3.979-5.651-3.952-9.564c0.002-0.263,0.01-0.529,0.024-0.799
		c0.033,4.038,1.896,7.131,4.633,9.674c3.168,3.411,7.926,5.86,12.351,8.124c1.305,0.667,2.57,1.314,3.746,1.964
		c1.08,0.597,2.203,1.162,3.389,1.761c2.709,1.366,5.508,2.778,7.945,4.645c1.22,0.789,2.301,1.631,3.259,2.527
		c2.667,2.896,4.131,6.363,4.513,10.615C83.626,109.016,83.642,109.75,83.606,110.59z M80.824,95.73
		c-0.724-0.766-1.508-1.5-2.408-2.178c-2.543-2.127-5.49-3.572-8.34-4.966c-1.033-0.506-2.037-0.998-2.986-1.506
		c-1.498-0.803-3.205-1.581-5.014-2.405c-4.14-1.888-8.844-4.036-12.219-7.145c-2.109-2.271-3.508-5.022-3.574-8.491
		c-0.006-0.281,0.021-0.545,0.03-0.818c0.128,3.585,1.774,6.346,4.218,8.594c3.197,3.483,8.275,5.801,12.965,7.939
		c1.824,0.831,3.545,1.615,5.074,2.434c0.936,0.501,1.93,0.988,2.951,1.488c2.904,1.422,5.908,2.892,8.525,5.082
		c0.585,0.441,1.132,0.898,1.646,1.375c3.1,3.326,4.664,7.479,4.854,12.814c0.012,0.328,0.003,0.686-0.014,1.053
		c0-0.004,0-0.01,0-0.016C86.333,103.316,84.5,99.061,80.824,95.73z M89.513,107.795c-0.089-7.213-2.521-11.619-5.766-14.629
		c-2.856-3.102-6.56-4.858-9.858-6.421c-0.93-0.44-1.828-0.866-2.668-1.302c-1.707-0.884-3.785-1.716-5.986-2.596
		c-4.481-1.792-9.601-3.854-13.118-7.077c-1.859-2.028-3.103-4.479-3.245-7.557c-0.017-0.354,0.004-0.688,0.012-1.029
		c0.16,3.317,1.691,5.853,3.951,7.908c3.271,3.598,8.737,5.799,13.777,7.814c2.225,0.889,4.326,1.729,6.076,2.636
		c0.83,0.431,1.717,0.852,2.635,1.286c3.044,1.442,6.417,3.045,9.214,5.65c2.963,3.215,5.057,7.824,4.995,15.029
		C89.528,107.6,89.518,107.701,89.513,107.795z M48.889,66.691c0.004-0.062-0.002-0.128,0.003-0.188
		C48.892,66.566,48.888,66.626,48.889,66.691z M83.006,54.979c-0.029-0.008-3.027-0.822-7.143-1.665
		c-0.52-0.107-1.078-0.232-1.678-0.367c-2.334-0.524-5.355-1.2-9.041-1.355c3.097,0.282,5.669,1.04,7.816,1.875
		c-1.937-0.394-4.206-0.765-6.816-0.875c4.996,0.456,8.631,2.146,11.309,3.408L80,57.185c1.395,0.647,2.581,1.198,3.337,1.524
		l-0.015,0.335c-0.154-0.007-0.361-0.022-0.48-0.055c-0.467-0.126-1.715-0.7-4.27-1.887l-2.551-1.187
		c-1.496-0.705-3.307-1.546-5.477-2.224c1.811,0.684,3.356,1.539,4.685,2.406c-1.097-0.484-2.311-0.978-3.685-1.406
		c3.506,1.323,6.033,3.291,7.871,4.741c0.754,0.592,1.402,1.11,1.979,1.572c0.83,0.663,1.624,1.297,2.152,1.687l-0.008,0.401
		c-0.557-0.011-0.633-0.03-0.684-0.043c-0.389-0.103-1.098-0.659-3.092-2.253c-0.578-0.461-1.223-0.978-1.928-1.532
		c-0.398-0.314-0.84-0.655-1.301-1.006c0.359,0.329,0.68,0.671,1.013,1.01c-0.005-0.004-0.009-0.007-0.013-0.01
		c0.236,0.216,0.44,0.442,0.665,0.663c0.508,0.549,0.984,1.102,1.433,1.648c1.029,1.255,1.877,2.384,2.496,3.208
		c0.426,0.567,0.865,1.153,1.053,1.349c0.052,0.001,0.13,0.001,0.21,0.001c0.127,0.169,0.25,0.331,0.362,0.477l-0.004,0.537
		c-0.779-0.007-0.818-0.017-0.885-0.034c-0.001,0-0.002-0.001-0.003-0.001c-0.153-0.2-0.327-0.432-0.544-0.72
		c-0.168-0.224-0.357-0.476-0.559-0.74c0.006,0.01,0.012,0.018,0.018,0.027c0.181,0.33,0.349,0.651,0.51,0.967
		c-0.216-0.255-0.509-0.642-0.969-1.254c-0.168-0.224-0.357-0.476-0.559-0.74c0.006,0.01,0.012,0.018,0.018,0.027
		c1.154,2.105,1.904,3.963,2.307,4.96c0.092,0.229,0.166,0.414,0.223,0.546c0.189-0.003,0.472-0.003,0.592-0.003
		c0.022,0.054,0.041,0.102,0.062,0.151l-0.003,0.863c-0.98-0.003-0.996-0.005-1.061-0.021c0.328,1.375,0.498,2.475,0.57,3.057h0.697
		v1.013h-0.717c-0.261-2.055-1.569-9.678-6.967-14.617c-1.639-1.766-3.712-3.292-6.346-4.257c-2.102-0.771-4.512-1.439-7.896-1.12
		c-3.081,0.394-8.042,1.396-10.977,4.667c-1.489,1.243-2.559,2.723-3.209,4.437c0.355-2.072,1.245-3.842,2.661-5.308
		c0.582-0.474,1.201-0.927,1.897-1.333c-0.411,0.209-0.8,0.427-1.172,0.649c0.66-0.569,1.39-1.1,2.232-1.563
		c-1.972,0.909-3.544,2.048-4.728,3.405c-1.729,1.563-2.809,3.308-3.442,5.069c0.382-2.285,1.322-4.252,2.813-5.9
		c0.923-0.822,2.007-1.598,3.298-2.298c-0.751,0.36-1.458,0.748-2.122,1.161c0.642-0.546,1.332-1.063,2.12-1.523
		c-1.841,0.938-3.27,2.022-4.384,3.188c-2.01,1.729-3.44,3.795-4.267,6.179c0.395-2.142,1.285-4.349,3.011-6.354
		c1.315-1.247,2.883-2.347,4.7-3.283c-1.081,0.506-2.15,1.093-3.178,1.766c0.883-0.762,1.913-1.479,3.119-2.134
		c-2.404,1.155-4.36,2.588-5.864,4.275c-1.872,1.745-3.411,3.92-4.327,6.615c0.57-2.945,1.92-5.521,3.993-7.681
		c1.469-1.311,3.19-2.468,5.169-3.453c-1.127,0.52-2.256,1.119-3.349,1.809c1.025-0.807,2.168-1.544,3.437-2.197
		c-2.408,1.126-4.771,2.641-6.698,4.671c-2.196,2-4.031,4.515-5.094,7.686c0.675-3.33,2.248-6.236,4.641-8.664
		c4.412-3.894,10.122-5.829,14.224-6.771l0.002,0.011c8.289-1.738,14.527-0.342,18.662,0.586c0.592,0.133,1.145,0.257,1.66,0.362
		c2.601,0.533,4.759,1.055,6.016,1.372L83.006,54.979z"/>
	<path fill="#1D1D1D" d="M37.693,124.998c0.036,0.197,0.064,0.396,0.102,0.594c4.35,1.971,8.844,3.99,16.369,4.916
		c-4.759-0.68-8.37-1.93-11.374-3.41c2.838,1.014,6.121,1.887,10.374,2.41c-7.021-1.004-11.552-3.246-15.304-5.645
		c-0.487-1.965-0.887-3.889-1.216-5.705c0.223,1.766,0.501,3.605,0.812,5.443c-0.11-0.072-0.222-0.143-0.331-0.215l-0.164-0.109
		l-0.049-0.189c-0.514-2.045-0.926-4.043-1.268-5.93c0.303,2.404,0.68,4.945,1.15,7.434
		C37.094,124.727,37.393,124.863,37.693,124.998z"/>
	<path fill="#1D1D1D" d="M38.748,123.225c0.034,0.143,0.064,0.281,0.1,0.424c3.693,2.422,8.111,4.738,15.066,5.795
		c-3.634-0.629-6.827-1.734-9.7-3.363c2.424,1.004,5.249,1.84,8.7,2.363c-5.533-0.957-10.044-3.025-13.95-6.365
		c-0.664-2.051-1.183-3.969-1.603-5.705c0.272,1.637,0.6,3.383,0.998,5.186c-0.078-0.072-0.16-0.133-0.238-0.205l-0.1-0.09
		l-0.039-0.127c-0.674-2.072-1.197-4.01-1.621-5.764c0.377,2.262,0.854,4.73,1.486,7.275
		C38.142,122.842,38.443,123.033,38.748,123.225z"/>
	<path fill="#1D1D1D" d="M39.844,121.5c0.021,0.066,0.039,0.131,0.061,0.197c3.744,3.428,8.088,5.553,13.414,6.6
		c-2.9-0.664-5.522-1.744-7.827-3.195c2.091,0.977,4.349,1.709,6.827,2.195c-4.411-1.008-8.185-2.971-11.149-5.775
		c-0.36-0.391-0.715-0.789-1.046-1.207l-0.07-0.119c-0.861-2.068-1.502-3.822-2.004-5.318c0.312,1.379,0.697,2.912,1.165,4.543
		c-0.028-0.037-0.062-0.07-0.091-0.105l-0.07-0.119c-0.861-2.068-1.502-3.822-2.004-5.318c0.453,2.006,1.049,4.318,1.855,6.82
		C39.211,120.979,39.528,121.236,39.844,121.5z"/>
</g>
<g>
	<path fill="#FFFFFF" d="M79.594,115.211c0.188-2.07,0.324-4.396-0.027-6.229c-0.848-5.297-3.803-9.121-9.582-12.408
		c-2.188-1.512-4.686-2.803-7.1-4.053c-1.348-0.697-2.742-1.418-4.053-2.164c-0.602-0.34-1.217-0.685-1.842-1.033
		c-7.66-4.282-17.193-9.611-16.879-19.628c0.199-6.273,3.531-11.15,9.561-14.256c-5.457,2.553-10.688,7.09-11.135,15.14
		c-0.535,9.683,7.582,15.241,16.676,20.542c1.682,0.98,3.441,1.906,5.145,2.803c2.096,1.104,4.074,2.146,5.898,3.268
		c6.549,3.336,10.047,7.053,11.312,12.031c0.574,2.031,0.609,4.439,0.574,6.307h-0.018c-1.523,8.006-8.766,11.775-16.668,12.414
		C73.793,127.348,78.17,120.904,79.594,115.211z"/>
	<path fill="#FFFFFF" d="M35.898,125.299l-0.049-0.258c-0.371-1.93-0.684-3.895-0.951-5.807c0.232,2.43,0.512,4.922,0.846,7.297
		c0.934,0.27,1.855,0.555,2.791,0.846c4.225,1.307,8.58,2.65,15.777,3.279c-8.48-0.867-13.309-3.045-17.982-5.162L35.898,125.299z"
		/>
	<path fill="#FFFFFF" d="M53.164,129.508c-7.486-1.07-12.141-3.549-16.039-6.121l-0.164-0.109l-0.049-0.189
		c-0.514-2.045-0.926-4.043-1.268-5.93c0.303,2.404,0.68,4.945,1.15,7.434C41.145,126.562,45.639,128.582,53.164,129.508z"/>
	<path fill="#FFFFFF" d="M52.914,128.443c-5.932-1.027-10.697-3.309-14.793-7.09l-0.1-0.09l-0.039-0.127
		c-0.674-2.072-1.197-4.01-1.621-5.764c0.377,2.262,0.854,4.73,1.486,7.275C41.541,125.07,45.959,127.387,52.914,128.443z"/>
	<path fill="#FFFFFF" d="M52.318,127.297c-5.494-1.256-10.023-3.967-13.195-7.982l-0.07-0.119c-0.861-2.068-1.502-3.822-2.004-5.318
		c0.453,2.006,1.049,4.318,1.855,6.82C42.648,124.125,46.992,126.25,52.318,127.297z"/>
	<path fill="#FFFFFF" d="M77.131,115.34c0.027-1.773-0.016-3.994-0.541-5.852c-1.205-4.748-4.443-8.156-10.828-11.412
		c-1.832-1.123-3.797-2.158-5.877-3.254c-1.711-0.9-3.482-1.834-5.184-2.824c-7.084-4.13-17.791-10.37-17.174-21.472
		c0.383-6.924,4.246-12.307,11.057-15.696c-5.949,2.739-11.932,7.695-12.633,16.605c-1.029,13.087,12.938,20.383,23.135,25.709
		c1.006,0.525,1.977,1.033,2.9,1.529c10.898,5.039,13.311,9.961,13.693,16.713h0.016c-0.002,0.031-0.008,0.061-0.008,0.09
		c0.002,0.033,0.004,0.066,0.006,0.1h-0.016c-0.318,5.082-4.277,9.035-10.645,10.59c-2.094,0.51-4.145,0.744-6.117,0.744
		c-8.627,0-15.787-4.461-18.775-9.639c-1.072-2-1.836-3.461-2.416-4.592c0.525,1.639,1.227,3.629,2.236,6.061
		c3.609,4.537,9.043,7.346,15.715,8.125C65.082,127.877,75.354,124.689,77.131,115.34z"/>
	<path fill="#FFFFFF" d="M73.889,86.745c-0.93-0.44-1.828-0.866-2.668-1.302c-1.707-0.884-3.785-1.716-5.986-2.596
		c-7.553-3.021-16.953-6.779-17.363-15.634c-0.219-4.696,1.73-8.176,5.801-10.417c-4.998,2.306-7.475,6.059-7.375,11.224
		c0.16,8.419,8.682,12.306,16.199,15.734c1.824,0.831,3.545,1.615,5.074,2.434c0.936,0.501,1.93,0.988,2.951,1.488
		c2.904,1.422,5.908,2.893,8.525,5.082c4.873,3.672,7.262,8.504,7.5,15.189c0.076,2.135-0.508,5.256-1.078,7.463l-0.033-0.008
		c-2.506,5.939-6.186,10.066-11.363,12.562c5.664-2.561,9.846-6.85,12.926-13.082c0.609-1.779,1.457-5.139,1.521-7.395
		C88.637,93.732,80.459,89.858,73.889,86.745z"/>
	<path fill="#FFFFFF" d="M82.088,114.955c0.225-1.33,0.695-4.336,0.461-6.473c-0.529-5.889-3.102-10.023-8.346-13.416
		c-2.395-1.832-5.152-3.225-7.818-4.569c-1.195-0.604-2.326-1.172-3.422-1.778c-1.168-0.644-2.426-1.286-3.719-1.949
		c-7.4-3.785-16.609-8.498-16.547-17.9c0.029-4.279,1.639-9.393,7.916-12.797c-6.039,2.901-9.295,7.521-9.488,13.655
		c-0.297,9.401,8.553,14.348,16.361,18.712c0.625,0.351,1.242,0.695,1.846,1.038c1.295,0.734,2.68,1.45,4.018,2.143
		c2.443,1.264,4.971,2.572,7.172,4.096c6.035,3.432,9.145,7.475,10.045,13.092c0.379,1.996,0.225,4.498,0.021,6.682l-0.021-0.002
		c-1.76,6.988-6.846,11.4-14.635,12.916C74.438,126.957,79.756,122.51,82.088,114.955z"/>
	<path fill="#FFFFFF" d="M62.658,7.228l-54.925,84l54.925,84l54.924-84L62.658,7.228z M87.887,115.367
		c-5.67,11.441-14.9,16.547-29.92,16.547c-9.641-0.447-15.002-2.107-19.732-3.57c-1.035-0.32-2.049-0.635-3.084-0.93l-0.316-0.09
		L34.787,127c-1.496-10.461-1.938-23.326-1.943-23.455l1.014-0.033c0,0,0.418,1.057,1.412,2.826c0.996,1.77,1.664,2.486,1.928,3.023
		c0.65,1.332,1.543,3.154,3.828,7.416c4.496,7.793,15.617,10.395,23.768,8.404c6.02-1.471,9.609-5.008,9.879-9.715
		c-0.365-6.529-2.607-11.018-13.137-15.887c-0.947-0.508-1.918-1.014-2.918-1.537C48.17,92.584,33.859,85.11,34.941,71.356
		C36,57.876,48.43,53.042,55.744,51.362l0.002,0.011c8.289-1.738,14.527-0.342,18.662,0.586c0.592,0.133,1.145,0.257,1.66,0.362
		c4.148,0.851,7.174,1.673,7.205,1.681l-0.268,0.978c-0.029-0.008-3.027-0.822-7.143-1.665c-0.52-0.107-1.078-0.232-1.678-0.367
		c-2.334-0.524-5.355-1.2-9.041-1.355c4.996,0.456,8.631,2.146,11.309,3.408L79,56.185c2.066,0.96,3.701,1.719,4.105,1.827
		c0.074,0.014,0.262,0.021,0.262,0.021l-0.045,1.012c-0.154-0.007-0.361-0.022-0.48-0.055c-0.467-0.126-1.715-0.7-4.27-1.887
		l-2.551-1.187c-1.496-0.705-3.307-1.546-5.477-2.224c3.506,1.323,6.033,3.291,7.871,4.741c0.754,0.592,1.402,1.11,1.979,1.572
		c1.266,1.011,2.459,1.965,2.73,2.068c0.053,0.001,0.432,0.007,0.434,0.007l-0.02,1.013c-0.557-0.011-0.633-0.03-0.684-0.043
		c-0.389-0.103-1.098-0.659-3.092-2.253c-0.578-0.461-1.223-0.978-1.928-1.532c-0.398-0.314-0.84-0.655-1.301-1.006
		c1.168,1.07,2.189,2.203,3.098,3.312c1.029,1.255,1.877,2.384,2.496,3.208c0.426,0.567,0.865,1.153,1.053,1.349
		c0.164,0.002,0.574,0.002,0.576,0.002l-0.008,1.013c-0.779-0.007-0.818-0.017-0.885-0.034c-0.309-0.082-0.533-0.37-1.547-1.721
		c-0.168-0.224-0.357-0.476-0.559-0.74c0.006,0.01,0.012,0.018,0.018,0.027c1.154,2.105,1.904,3.963,2.307,4.96
		c0.092,0.229,0.166,0.414,0.223,0.546c0.244-0.004,0.65-0.003,0.654-0.002l-0.004,1.014c-0.98-0.003-0.996-0.005-1.061-0.021
		c0.328,1.375,0.498,2.475,0.57,3.057h0.697v1.013h-1.623l-0.035-0.469c-0.01-0.144-1.184-14.306-12.371-18.405
		c-2.102-0.771-4.512-1.439-7.896-1.12c-4.695,0.6-13.791,2.579-13.357,11.918c0.383,8.204,9.066,11.677,16.73,14.741
		c2.225,0.889,4.326,1.729,6.076,2.636c0.83,0.431,1.717,0.852,2.635,1.286c6.83,3.236,15.332,7.265,15.209,21.679
		c-0.068,2.436-0.994,6.064-1.629,7.865L87.887,115.367z"/>
	<path fill="#FFFFFF" d="M84.549,114.904c0.535-2.121,1.055-4.971,0.984-6.92c-0.225-6.357-2.486-10.943-7.117-14.432
		c-2.543-2.127-5.49-3.572-8.34-4.966c-1.033-0.506-2.037-0.998-2.986-1.506c-1.498-0.803-3.205-1.581-5.014-2.405
		c-7.404-3.376-16.619-7.579-16.793-16.636c-0.098-5.036,2.029-8.82,6.328-11.329c-6.277,3.196-7.873,8.088-7.9,12.165
		c-0.059,8.779,8.469,13.144,15.994,16.993c1.305,0.667,2.57,1.314,3.746,1.964c1.08,0.597,2.203,1.162,3.389,1.761
		c2.709,1.365,5.508,2.778,7.945,4.645c5.424,3.506,8.221,8.008,8.771,14.143c0.18,1.646,0.008,3.963-0.525,7.07l-0.043-0.008
		c-2.217,6.98-7.062,11.451-14.447,13.387C76.297,126.924,81.412,122.412,84.549,114.904z"/>
</g>
</svg>
